<?xml version="1.0" encoding="UTF-8" standalone="no"?>
<!DOCTYPE svg PUBLIC "-//W3C//DTD SVG 1.1//EN"
 "http://www.w3.org/Graphics/SVG/1.1/DTD/svg11.dtd">
<!-- Generated by graphviz version 2.40.1 (20161225.0304)
 -->
<!-- Pages: 1 -->
<svg width="362pt" height="221pt"
 viewBox="0.00 0.00 362.00 221.44" xmlns="http://www.w3.org/2000/svg" xmlns:xlink="http://www.w3.org/1999/xlink">
<g id="graph0" class="graph" transform="scale(1 1) rotate(0) translate(4 217.442)">
<polygon fill="#ffffff" stroke="transparent" points="-4,4 -4,-217.442 358.002,-217.442 358.002,4 -4,4"/>
<!-- 139687214592800 -->
<g id="node1" class="node">
<title>139687214592800</title>
<ellipse fill="none" stroke="#000000" cx="239.002" cy="-186.942" rx="26.5" ry="26.5"/>
<text text-anchor="middle" x="239.002" y="-183.242" font-family="Times,serif" font-size="14.00" fill="#000000">4/10</text>
</g>
<!-- 139687121246976 -->
<g id="node2" class="node">
<title>139687121246976</title>
<ellipse fill="none" stroke="#000000" cx="84" cy="-102.192" rx="22" ry="22"/>
<text text-anchor="middle" x="84" y="-98.492" font-family="Times,serif" font-size="14.00" fill="#000000">1/3</text>
</g>
<!-- 139687214592800&#45;&#45;139687121246976 -->
<g id="edge1" class="edge">
<title>139687214592800&#45;&#45;139687121246976</title>
<path fill="none" stroke="#ff0000" d="M215.462,-174.072C184.972,-157.402 132.362,-128.642 103.822,-113.032"/>
</g>
<!-- 139687173296480 -->
<g id="node3" class="node">
<title>139687173296480</title>
<ellipse fill="none" stroke="#000000" cx="208.002" cy="-102.192" rx="22" ry="22"/>
<text text-anchor="middle" x="208.002" y="-98.492" font-family="Times,serif" font-size="14.00" fill="#000000">1/3</text>
</g>
<!-- 139687214592800&#45;&#45;139687173296480 -->
<g id="edge2" class="edge">
<title>139687214592800&#45;&#45;139687173296480</title>
<path fill="none" stroke="#ff0000" d="M229.702,-161.512C225.202,-149.232 219.882,-134.672 215.622,-123.042"/>
</g>
<!-- 139687121253264 -->
<g id="node4" class="node">
<title>139687121253264</title>
<ellipse fill="none" stroke="#000000" cx="270.002" cy="-102.192" rx="22" ry="22"/>
<text text-anchor="middle" x="270.002" y="-98.492" font-family="Times,serif" font-size="14.00" fill="#000000">1/2</text>
</g>
<!-- 139687214592800&#45;&#45;139687121253264 -->
<g id="edge3" class="edge">
<title>139687214592800&#45;&#45;139687121253264</title>
<path fill="none" stroke="#ff0000" d="M248.302,-161.512C252.792,-149.232 258.122,-134.672 262.372,-123.042"/>
</g>
<!-- 139687121253656 -->
<g id="node5" class="node">
<title>139687121253656</title>
<ellipse fill="none" stroke="#000000" cx="332.002" cy="-102.192" rx="22" ry="22"/>
<text text-anchor="middle" x="332.002" y="-98.492" font-family="Times,serif" font-size="14.00" fill="#000000">1/2</text>
</g>
<!-- 139687214592800&#45;&#45;139687121253656 -->
<g id="edge4" class="edge">
<title>139687214592800&#45;&#45;139687121253656</title>
<path fill="none" stroke="#ff0000" d="M258.722,-168.972C275.572,-153.612 299.532,-131.782 315.412,-117.312"/>
</g>
<!-- 139687121254160 -->
<g id="node6" class="node">
<title>139687121254160</title>
<ellipse fill="none" stroke="#000000" cx="22" cy="-22" rx="22" ry="22"/>
<text text-anchor="middle" x="22" y="-18.3" font-family="Times,serif" font-size="14.00" fill="#000000">0/1</text>
</g>
<!-- 139687121246976&#45;&#45;139687121254160 -->
<g id="edge5" class="edge">
<title>139687121246976&#45;&#45;139687121254160</title>
<path fill="none" stroke="#ff0000" d="M70.24,-84.398C59.966,-71.108 45.987,-53.026 35.721,-39.748"/>
</g>
<!-- 139687121282048 -->
<g id="node7" class="node">
<title>139687121282048</title>
<ellipse fill="none" stroke="#000000" cx="84" cy="-22" rx="22" ry="22"/>
<text text-anchor="middle" x="84" y="-18.3" font-family="Times,serif" font-size="14.00" fill="#000000">0/1</text>
</g>
<!-- 139687121246976&#45;&#45;139687121282048 -->
<g id="edge6" class="edge">
<title>139687121246976&#45;&#45;139687121282048</title>
<path fill="none" stroke="#ff0000" d="M84,-79.857C84,-68.734 84,-55.326 84,-44.219"/>
</g>
<!-- 139687121254888 -->
<g id="node8" class="node">
<title>139687121254888</title>
<ellipse fill="none" stroke="#000000" cx="146.002" cy="-22" rx="22" ry="22"/>
<text text-anchor="middle" x="146.002" y="-18.3" font-family="Times,serif" font-size="14.00" fill="#000000">0/1</text>
</g>
<!-- 139687173296480&#45;&#45;139687121254888 -->
<g id="edge7" class="edge">
<title>139687173296480&#45;&#45;139687121254888</title>
<path fill="none" stroke="#ff0000" d="M194.242,-84.398C183.962,-71.108 169.982,-53.026 159.722,-39.748"/>
</g>
<!-- 139687121283224 -->
<g id="node9" class="node">
<title>139687121283224</title>
<ellipse fill="none" stroke="#000000" cx="208.002" cy="-22" rx="22" ry="22"/>
<text text-anchor="middle" x="208.002" y="-18.3" font-family="Times,serif" font-size="14.00" fill="#000000">0/1</text>
</g>
<!-- 139687173296480&#45;&#45;139687121283224 -->
<g id="edge8" class="edge">
<title>139687173296480&#45;&#45;139687121283224</title>
<path fill="none" stroke="#ff0000" d="M208.002,-79.857C208.002,-68.734 208.002,-55.326 208.002,-44.219"/>
</g>
<!-- 139687121255616 -->
<g id="node10" class="node">
<title>139687121255616</title>
<ellipse fill="none" stroke="#000000" cx="270.002" cy="-22" rx="22" ry="22"/>
<text text-anchor="middle" x="270.002" y="-18.3" font-family="Times,serif" font-size="14.00" fill="#000000">0/1</text>
</g>
<!-- 139687121253264&#45;&#45;139687121255616 -->
<g id="edge9" class="edge">
<title>139687121253264&#45;&#45;139687121255616</title>
<path fill="none" stroke="#ff0000" d="M270.002,-79.857C270.002,-68.734 270.002,-55.326 270.002,-44.219"/>
</g>
<!-- 139687121281096 -->
<g id="node11" class="node">
<title>139687121281096</title>
<ellipse fill="none" stroke="#000000" cx="332.002" cy="-22" rx="22" ry="22"/>
<text text-anchor="middle" x="332.002" y="-18.3" font-family="Times,serif" font-size="14.00" fill="#000000">0/1</text>
</g>
<!-- 139687121253656&#45;&#45;139687121281096 -->
<g id="edge10" class="edge">
<title>139687121253656&#45;&#45;139687121281096</title>
<path fill="none" stroke="#ff0000" d="M332.002,-79.857C332.002,-68.734 332.002,-55.326 332.002,-44.219"/>
</g>
</g>
</svg>
