<?xml version="1.0" encoding="UTF-8" standalone="no"?>
<!DOCTYPE svg PUBLIC "-//W3C//DTD SVG 1.1//EN"
 "http://www.w3.org/Graphics/SVG/1.1/DTD/svg11.dtd">
<!-- Generated by graphviz version 2.40.1 (20161225.0304)
 -->
<!-- Pages: 1 -->
<svg width="273pt" height="175pt"
 viewBox="0.00 0.00 272.50 175.14" xmlns="http://www.w3.org/2000/svg" xmlns:xlink="http://www.w3.org/1999/xlink">
<g id="graph0" class="graph" transform="scale(1 1) rotate(0) translate(4 171.143)">
<polygon fill="#ffffff" stroke="transparent" points="-4,4 -4,-171.143 268.502,-171.143 268.502,4 -4,4"/>
<!-- 140050058089472 -->
<g id="node1" class="node">
<title>140050058089472</title>
<ellipse fill="none" stroke="#000000" cx="119.002" cy="-132.143" rx="35" ry="35"/>
<text text-anchor="middle" x="119.002" y="-128.443" font-family="Times,serif" font-size="14.00" fill="#000000">90/100</text>
</g>
<!-- 140050058089528 -->
<g id="node2" class="node">
<title>140050058089528</title>
<ellipse fill="none" stroke="#000000" cx="22" cy="-30.5" rx="22" ry="22"/>
<text text-anchor="middle" x="22" y="-26.8" font-family="Times,serif" font-size="14.00" fill="#000000">0/5</text>
</g>
<!-- 140050058089472&#45;&#45;140050058089528 -->
<g id="edge1" class="edge">
<title>140050058089472&#45;&#45;140050058089528</title>
<path fill="none" stroke="#ff0000" d="M94.523,-106.493C76.563,-87.676 52.724,-62.695 37.37,-46.606"/>
</g>
<!-- 140050058089920 -->
<g id="node3" class="node">
<title>140050058089920</title>
<ellipse fill="none" stroke="#000000" cx="84" cy="-30.5" rx="22" ry="22"/>
<text text-anchor="middle" x="84" y="-26.8" font-family="Times,serif" font-size="14.00" fill="#000000">0/5</text>
</g>
<!-- 140050058089472&#45;&#45;140050058089920 -->
<g id="edge2" class="edge">
<title>140050058089472&#45;&#45;140050058089920</title>
<path fill="none" stroke="#ff0000" d="M107.542,-98.862C102.152,-83.23 95.905,-65.074 91.198,-51.403"/>
</g>
<!-- 140049928909712 -->
<g id="node4" class="node">
<title>140049928909712</title>
<ellipse fill="none" stroke="#000000" cx="155.002" cy="-30.5" rx="30.5" ry="30.5"/>
<text text-anchor="middle" x="155.002" y="-26.8" font-family="Times,serif" font-size="14.00" fill="#000000">45/45</text>
</g>
<!-- 140050058089472&#45;&#45;140049928909712 -->
<g id="edge3" class="edge">
<title>140050058089472&#45;&#45;140049928909712</title>
<path fill="none" stroke="#ff0000" d="M130.792,-98.862C135.302,-86.125 140.402,-71.712 144.762,-59.415"/>
</g>
<!-- 140049928909768 -->
<g id="node5" class="node">
<title>140049928909768</title>
<ellipse fill="none" stroke="#000000" cx="234.002" cy="-30.5" rx="30.5" ry="30.5"/>
<text text-anchor="middle" x="234.002" y="-26.8" font-family="Times,serif" font-size="14.00" fill="#000000">45/45</text>
</g>
<!-- 140050058089472&#45;&#45;140049928909768 -->
<g id="edge4" class="edge">
<title>140050058089472&#45;&#45;140049928909768</title>
<path fill="none" stroke="#ff0000" d="M145.382,-108.823C165.142,-91.359 191.922,-67.691 210.852,-50.958"/>
</g>
</g>
</svg>
